2.5Hzhigh3min_grf.mot
version=1
nRows=10
nColumns 19
inDegrees=yes
endheader
time	1_ground_force_vx	1_ground_force_vy	1_ground_force_vz	1_ground_force_px	1_ground_force_py	1_ground_force_pz	1_ground_torque_x	1_ground_torque_y	1_ground_torque_z	2_ground_force_vx	2_ground_force_vy	2_ground_force_vz	2_ground_force_px	2_ground_force_py	2_ground_force_pz	2_ground_torque_x	2_ground_torque_y	2_ground_torque_z
            0.005000	           -0.412686	            0.540717	            0.003343	           -0.200145	            0.006368	           -0.437695	            0.225002	           -0.194419	            0.018592	           -0.230824	           -0.922424	            0.231455	           -0.221797	            0.005566	           -0.664874	           -0.150085	           -0.066375	           -0.094423
            0.005500	           -0.321033	            0.721001	            0.003888	           -0.200145	            0.006368	           -0.437695	            0.243331	           -0.138348	           -0.108897	           -0.371455	           -0.922262	            0.043802	           -0.221797	            0.005566	           -0.664874	           -0.112363	           -0.095001	            0.018561
            0.006000	           -0.044674	            1.079226	            0.555023	           -0.200145	            0.006368	           -0.437695	            0.144832	           -0.000054	            0.016445	           -0.512608	           -0.739124	            0.185303	           -0.221797	            0.005566	           -0.664874	           -0.056253	           -0.037745	           -0.075512
            0.006500	           -0.228337	            0.178649	            0.368189	           -0.200145	            0.006368	           -0.437695	            0.153241	            0.101454	            0.027871	           -0.560931	           -0.369824	           -0.141859	           -0.221797	            0.005566	           -0.664874	           -0.131343	           -0.047604	           -0.037813
            0.007000	            0.092222	            0.179300	            0.229825	           -0.200145	            0.006368	           -0.437695	            0.196374	            0.018978	           -0.090494	           -0.229700	           -1.289047	           -0.239140	           -0.221797	            0.005566	           -0.664874	           -0.206621	           -0.010064	           -0.037646
            0.007500	           -0.045615	           -0.000402	            0.091826	           -0.200145	            0.006368	           -0.437695	            0.183869	           -0.092497	            0.015990	           -0.230241	           -1.105903	            0.043085	           -0.221797	            0.005566	           -0.664874	           -0.131182	           -0.085616	            0.018603
            0.008000	           -0.137481	            0.360308	            0.047743	           -0.200145	            0.006368	           -0.437695	            0.054052	           -0.166271	           -0.044320	           -0.141899	            0.367957	           -0.045554	           -0.221797	            0.005566	           -0.664874	           -0.224997	           -0.123565	           -0.038043
            0.008500	           -0.230045	            0.181598	           -0.319650	           -0.200145	            0.006368	           -0.437695	            0.238882	           -0.129559	            0.007870	           -0.372017	           -0.738951	            0.279100	           -0.221797	            0.005566	           -0.664874	           -0.093679	           -0.075759	           -0.056780
            0.009000	           -0.458771	            0.000501	           -0.136430	           -0.200145	            0.006368	           -0.437695	            0.118473	           -0.129600	           -0.020397	           -0.372723	           -0.554468	            0.185901	           -0.221797	            0.005566	           -0.664874	           -0.206391	           -0.076166	           -0.056733
            0.009500	           -0.412344	            0.540127	            0.140911	           -0.200145	            0.006368	           -0.437695	            0.200101	           -0.027634	           -0.074621	           -0.516740	            0.366938	           -0.139251	           -0.221797	            0.005566	           -0.664874	           -0.056235	           -0.047064	           -0.113246
